<svg width="426" height="459" viewBox="0 0 426 459" fill="none" xmlns="http://www.w3.org/2000/svg">
<path d="M100.928 408.136H75.6207L71.5639 420.113H54.2741L78.8082 352.306H97.9332L122.467 420.113H104.984L100.928 408.136ZM96.6775 395.386L88.2741 370.562L79.9673 395.386H96.6775ZM130.031 386.113C130.031 379.416 131.48 373.46 134.377 368.244C137.275 362.964 141.3 358.875 146.451 355.977C151.667 353.015 157.559 351.534 164.127 351.534C172.177 351.534 179.067 353.659 184.798 357.909C190.529 362.159 194.36 367.954 196.292 375.295H178.133C176.781 372.462 174.849 370.305 172.338 368.824C169.891 367.342 167.09 366.602 163.934 366.602C158.847 366.602 154.726 368.373 151.571 371.914C148.415 375.456 146.838 380.189 146.838 386.113C146.838 392.038 148.415 396.77 151.571 400.312C154.726 403.854 158.847 405.625 163.934 405.625C167.09 405.625 169.891 404.884 172.338 403.403C174.849 401.922 176.781 399.765 178.133 396.931H196.292C194.36 404.272 190.529 410.068 184.798 414.318C179.067 418.503 172.177 420.596 164.127 420.596C157.559 420.596 151.667 419.147 146.451 416.25C141.3 413.288 137.275 409.199 134.377 403.983C131.48 398.767 130.031 392.81 130.031 386.113ZM206.504 386.113C206.504 379.416 207.953 373.46 210.85 368.244C213.748 362.964 217.773 358.875 222.924 355.977C228.14 353.015 234.032 351.534 240.6 351.534C248.649 351.534 255.54 353.659 261.271 357.909C267.002 362.159 270.833 367.954 272.765 375.295H254.606C253.254 372.462 251.322 370.305 248.81 368.824C246.364 367.342 243.562 366.602 240.407 366.602C235.32 366.602 231.199 368.373 228.043 371.914C224.888 375.456 223.31 380.189 223.31 386.113C223.31 392.038 224.888 396.77 228.043 400.312C231.199 403.854 235.32 405.625 240.407 405.625C243.562 405.625 246.364 404.884 248.81 403.403C251.322 401.922 253.254 399.765 254.606 396.931H272.765C270.833 404.272 267.002 410.068 261.271 414.318C255.54 418.503 248.649 420.596 240.6 420.596C234.032 420.596 228.14 419.147 222.924 416.25C217.773 413.288 213.748 409.199 210.85 403.983C207.953 398.767 206.504 392.81 206.504 386.113ZM302.295 352.306V420.113H285.778V352.306H302.295ZM349.23 420.789C342.855 420.789 336.995 419.308 331.651 416.346C326.37 413.384 322.153 409.263 318.997 403.983C315.906 398.638 314.361 392.649 314.361 386.017C314.361 379.384 315.906 373.428 318.997 368.147C322.153 362.867 326.37 358.746 331.651 355.784C336.995 352.822 342.855 351.341 349.23 351.341C355.605 351.341 361.433 352.822 366.713 355.784C372.058 358.746 376.244 362.867 379.27 368.147C382.361 373.428 383.906 379.384 383.906 386.017C383.906 392.649 382.361 398.638 379.27 403.983C376.179 409.263 371.994 413.384 366.713 416.346C361.433 419.308 355.605 420.789 349.23 420.789ZM349.23 405.721C354.639 405.721 358.954 403.918 362.173 400.312C365.458 396.706 367.1 391.941 367.1 386.017C367.1 380.028 365.458 375.263 362.173 371.721C358.954 368.115 354.639 366.312 349.23 366.312C343.757 366.312 339.378 368.083 336.094 371.625C332.874 375.166 331.264 379.964 331.264 386.017C331.264 392.005 332.874 396.803 336.094 400.409C339.378 403.95 343.757 405.721 349.23 405.721Z" fill="#1A1A1A"/>
<path d="M79.0712 267.236L81.5448 279.177L87.1837 284.809L87.9649 288.58L62.7399 263.332L61.8856 259.208L83.0177 264.699L83.7988 268.47L79.0712 267.236ZM76.8081 266.618L66.0622 263.77L78.8586 276.516L76.8081 266.618Z" fill="black"/>
<path d="M60.8451 218.594C60.9353 216.698 61.3514 215.282 62.0934 214.348C62.8366 213.388 63.7362 212.925 64.7921 212.961L61.5276 210.63L61.703 206.944L79.9838 219.997C81.616 221.162 83.0429 222.623 84.2645 224.379C85.5078 226.15 86.4505 228.094 87.0924 230.209C87.7356 232.298 88.007 234.397 87.9067 236.508C87.7694 239.392 87.1001 241.4 85.8988 242.531C84.6974 243.661 83.1309 243.717 81.1992 242.697L81.3707 239.091C82.4779 239.467 83.3878 239.26 84.1004 238.471C84.8348 237.697 85.2439 236.429 85.3278 234.666C85.4231 232.663 84.9891 230.668 84.026 228.683C83.0641 226.67 81.6583 225.004 79.8084 223.683L76.0543 221.002C77.0647 222.47 77.8843 224.16 78.5134 226.072C79.1425 227.985 79.4119 229.89 79.3217 231.786C79.229 233.736 78.7527 235.233 77.8931 236.276C77.0346 237.293 75.8765 237.75 74.4187 237.648C72.961 237.546 71.3289 236.851 69.5226 235.561C67.6945 234.256 66.1166 232.659 64.7887 230.772C63.4391 228.87 62.4209 226.858 61.7341 224.739C61.0487 222.592 60.7523 220.544 60.8451 218.594ZM70.4395 216.994C69.0902 216.03 67.8992 215.525 66.8663 215.478C65.8335 215.431 65.0286 215.795 64.4516 216.571C63.8542 217.304 63.5231 218.352 63.4583 219.714C63.3935 221.076 63.5955 222.505 64.0645 224C64.5334 225.495 65.2526 226.933 66.2219 228.316C67.1912 229.698 68.3505 230.871 69.6998 231.835C71.0709 232.814 72.2837 233.334 73.3384 233.397C74.3712 233.444 75.1863 233.101 75.7838 232.367C76.3595 231.618 76.6797 230.563 76.7445 229.201C76.8093 227.838 76.6072 226.41 76.1383 224.915C75.6488 223.378 74.9194 221.918 73.9501 220.536C72.959 219.138 71.7888 217.957 70.4395 216.994Z" fill="black"/>
<path d="M80.304 177.278C80.8565 177.7 81.4252 178.184 82.0103 178.728L75.1812 194.916C76.9544 196.107 78.5896 196.461 80.0868 195.975C81.5732 195.449 82.6905 194.299 83.4389 192.525C84.0522 191.072 84.2747 189.645 84.1063 188.246C83.9271 186.806 83.4319 185.516 82.6207 184.375L84.1487 180.753C85.5987 182.577 86.512 184.708 86.8885 187.146C87.2437 189.568 86.9119 191.986 85.8933 194.4C85.0825 196.322 83.983 197.763 82.5948 198.722C81.217 199.657 79.6662 200.036 77.9424 199.859C76.1974 199.666 74.4218 198.88 72.6155 197.5C70.8093 196.12 69.4029 194.492 68.3963 192.616C67.3897 190.739 66.8422 188.773 66.7538 186.718C66.6545 184.623 67.0206 182.589 67.8522 180.618C68.6629 178.697 69.7414 177.273 71.0876 176.346C72.4337 175.42 73.9106 175.049 75.5182 175.235C77.115 175.38 78.7102 176.061 80.304 177.278ZM78.2327 180.29C77.1277 179.446 76.0626 179.006 75.0373 178.973C73.9907 178.922 73.0577 179.236 72.2381 179.913C71.4077 180.549 70.7431 181.458 70.2442 182.641C69.5269 184.341 69.3812 186.152 69.8068 188.073C70.2429 189.97 71.2533 191.638 72.838 193.077L78.2327 180.29Z" fill="black"/>
<path d="M85.7516 154.686C87.6949 152.849 89.9015 151.876 92.3713 151.767C94.8204 151.641 97.227 152.541 99.5911 154.465L109.638 162.645L107.015 165.125L97.372 157.274C95.6715 155.89 93.9771 155.211 92.2886 155.238C90.5794 155.249 89.0349 155.906 87.6551 157.21C86.2559 158.533 85.6051 159.969 85.7027 161.518C85.8197 163.05 86.7699 164.541 88.5533 165.993L97.9785 173.666L95.3259 176.174L78.2796 162.296L80.9322 159.789L83.3585 161.764C83.0123 160.559 83.0476 159.34 83.4646 158.107C83.901 156.855 84.6633 155.715 85.7516 154.686Z" fill="black"/>
<path d="M109.567 150.492C107.85 149.003 106.776 147.537 106.345 146.092C105.895 144.63 106.059 143.291 106.839 142.075C107.644 140.85 109.013 139.845 110.946 139.062C113.449 138.048 116.001 137.644 118.602 137.85C121.228 138.045 123.68 138.799 125.959 140.112L122.316 141.588C120.958 140.853 119.479 140.437 117.876 140.341C116.299 140.235 114.767 140.483 113.28 141.085C111.347 141.868 110.331 142.974 110.232 144.402C110.114 145.812 111.044 147.375 113.025 149.092C115.025 150.826 117.166 151.924 119.446 152.388C121.727 152.852 123.834 152.693 125.767 151.909C127.254 151.307 128.211 150.56 128.636 149.668C129.062 148.776 128.935 147.799 128.256 146.738L131.9 145.262C133.052 146.954 133.325 148.578 132.72 150.134C132.094 151.672 130.555 152.938 128.101 153.932C126.168 154.716 124.092 155.107 121.873 155.106C119.679 155.096 117.514 154.701 115.378 153.921C113.242 153.141 111.305 151.998 109.567 150.492Z" fill="black"/>
<path d="M132.916 129.912C132.232 130.04 131.476 129.987 130.646 129.752C129.816 129.518 129.144 129.167 128.628 128.7C128.113 128.233 127.914 127.794 128.03 127.382C128.147 126.97 128.546 126.701 129.23 126.573C129.887 126.449 130.617 126.508 131.421 126.747C132.251 126.982 132.923 127.332 133.438 127.799C133.953 128.266 134.153 128.705 134.036 129.117C133.946 129.524 133.573 129.789 132.916 129.912ZM137.296 131.984L153.585 146.743L149.997 147.415L133.708 132.656L137.296 131.984Z" fill="black"/>
<path d="M157.669 137.267C156.042 135.718 155.073 134.353 154.762 133.172C154.431 131.973 154.715 131.034 155.615 130.355C156.541 129.676 157.98 129.315 159.931 129.273C161.856 129.232 163.827 129.483 165.845 130.024C167.862 130.565 169.674 131.262 171.279 132.113L168.374 129.348L172.063 129.269L187.985 144.423L184.296 144.502L181.332 141.681C181.54 142.582 181.232 143.342 180.408 143.963C179.592 144.565 178.234 144.886 176.336 144.926C174.385 144.968 172.272 144.674 169.997 144.044C167.722 143.414 165.501 142.509 163.333 141.33C161.165 140.151 159.277 138.797 157.669 137.267ZM176.306 136.897C175.105 135.754 173.725 134.766 172.165 133.932C170.606 133.098 169.019 132.472 167.404 132.055C165.797 131.618 164.312 131.414 162.949 131.443C161.585 131.472 160.574 131.72 159.916 132.186C159.258 132.652 159.041 133.317 159.263 134.179C159.486 135.041 160.198 136.044 161.399 137.187C162.619 138.348 164.019 139.355 165.597 140.208C167.157 141.041 168.74 141.677 170.347 142.114C171.935 142.532 173.41 142.727 174.774 142.698C176.137 142.669 177.148 142.421 177.806 141.955C178.471 141.469 178.693 140.795 178.47 139.933C178.228 139.052 177.507 138.04 176.306 136.897Z" fill="black"/>
<path d="M250.149 59.1998C252.409 57.6233 255.016 56.3892 257.973 55.4978C260.977 54.5986 263.999 54.1075 267.038 54.0245C270.125 53.9338 272.951 54.2671 275.516 55.0244C278.517 55.9105 280.489 57.1459 281.43 58.7307C282.371 60.3155 282.128 62.0517 280.701 63.9392L274.506 62.1103C274.987 61.1633 274.938 60.3318 274.357 59.6159C273.803 58.9076 272.794 58.3376 271.332 57.906C269.767 57.444 268.051 57.2533 266.184 57.3336C264.364 57.4063 262.538 57.7384 260.704 58.3298C258.897 58.9289 257.226 59.7641 255.69 60.8356C254.177 61.8917 253.172 62.9239 252.677 63.932C252.229 64.9324 252.29 65.8325 252.859 66.6323C253.476 67.4244 254.567 68.0514 256.132 68.5134C257.594 68.945 259.151 69.1323 260.802 69.0753C262.501 69.0105 264.207 68.6864 265.919 68.1028L272.114 69.9317C268.87 71.3044 265.461 72.1168 261.887 72.3687C258.361 72.613 255.085 72.2883 252.058 71.3947C249.493 70.6374 247.665 69.6076 246.574 68.3054C245.531 66.9955 245.295 65.5427 245.866 63.9469C246.462 62.3588 247.89 60.7764 250.149 59.1998Z" fill="black"/>
<path d="M303.899 73.7198C305.526 73.4124 307.129 73.3426 308.709 73.5102C310.313 73.6902 311.779 74.1267 313.107 74.8196L308.163 78.0342L306.847 77.3474C305.282 76.5307 303.749 76.1379 302.247 76.1692C300.77 76.2127 299.167 76.7958 297.441 77.9183L288.157 83.9538L283.178 81.3552L301.812 69.2406L306.792 71.8391L303.899 73.7198Z" fill="black"/>
<path d="M330.419 99.8317C329.734 100.25 329.077 100.592 328.447 100.858L315.977 90.4422C314.71 91.3647 314.069 92.3803 314.052 93.4889C314.036 94.5975 314.582 95.6147 315.69 96.5406C317.291 97.878 319.195 98.3624 321.402 97.9938L326.051 101.877C323.733 102.582 321.282 102.713 318.7 102.273C316.14 101.818 313.844 100.742 311.811 99.0445C310.169 97.6728 309.091 96.1942 308.576 94.6087C308.104 93.0264 308.241 91.4734 308.985 89.9496C309.75 88.4429 311.102 87.0969 313.042 85.9114C315.005 84.712 317.087 83.9591 319.289 83.6527C321.491 83.3463 323.638 83.4891 325.73 84.0812C327.822 84.6732 329.71 85.6723 331.393 87.0782C333.015 88.4328 334.074 89.8787 334.571 91.4159C335.088 92.9703 334.977 94.4783 334.237 95.94C333.54 97.4048 332.268 98.702 330.419 99.8317ZM327.324 95.2656C328.536 94.4953 329.117 93.5613 329.067 92.4634C329.04 91.3516 328.462 90.3242 327.333 89.3812C326.266 88.4896 324.997 87.9583 323.528 87.7873C322.102 87.6196 320.668 87.8576 319.226 88.5014L327.324 95.2656Z" fill="black"/>
<path d="M336.216 106.013C338.171 104.906 340.141 104.298 342.125 104.189C344.124 104.101 345.938 104.472 347.567 105.3C349.21 106.151 350.538 107.379 351.552 108.985C352.437 110.387 352.917 111.773 352.992 113.142C353.082 114.534 352.884 115.797 352.399 116.931L355.158 115.37L358.178 120.153L338.833 131.097L335.813 126.314L338.641 124.714C337.348 124.617 336.055 124.197 334.765 123.454C333.512 122.72 332.442 121.653 331.557 120.25C330.557 118.667 330.062 116.983 330.072 115.197C330.096 113.434 330.622 111.74 331.65 110.115C332.715 108.499 334.237 107.132 336.216 106.013ZM345.485 120.842C346.672 120.171 347.542 119.372 348.095 118.445C348.67 117.506 348.937 116.526 348.893 115.507C348.873 114.475 348.585 113.518 348.028 112.636C347.471 111.754 346.736 111.065 345.822 110.569C344.909 110.073 343.871 109.831 342.71 109.843C341.587 109.865 340.443 110.205 339.279 110.864C338.115 111.522 337.233 112.328 336.634 113.28C336.073 114.243 335.795 115.229 335.801 116.238C335.821 117.271 336.102 118.216 336.645 119.076C337.201 119.958 337.944 120.658 338.872 121.177C339.823 121.682 340.86 121.924 341.984 121.902C343.131 121.867 344.298 121.514 345.485 120.842Z" fill="black"/>
<path d="M359.285 137.757L349.78 142.784C349.118 143.134 348.683 143.557 348.476 144.053C348.299 144.561 348.333 145.226 348.578 146.046L349.325 148.545L345.14 150.758L344.129 147.375C342.774 142.839 344.13 139.496 348.197 137.345L357.666 132.337L356.908 129.8L360.986 127.643L361.744 130.18L366.603 127.61L368.222 133.03L363.363 135.6L364.787 140.367L360.709 142.524L359.285 137.757Z" fill="black"/>
<path d="M368.886 150.248C368.764 149.266 368.937 148.305 369.404 147.364C369.898 146.437 370.563 145.763 371.398 145.341C372.234 144.919 372.966 144.888 373.594 145.248C374.249 145.622 374.637 146.3 374.759 147.282C374.881 148.264 374.695 149.219 374.2 150.145C373.734 151.086 373.082 151.767 372.247 152.189C371.411 152.611 370.666 152.635 370.01 152.261C369.382 151.901 369.008 151.23 368.886 150.248ZM366.863 154.189L347.023 164.209L346.332 158.634L366.172 148.615L366.863 154.189Z" fill="black"/>
<path d="M351.761 181.474L366.797 179.771L366.404 185.736L346.863 187.055L347.311 180.25L367.931 162.557L367.535 168.562L351.761 181.474Z" fill="black"/>
<path d="M354.195 202.827C356.258 201.938 357.967 201.574 359.323 201.734C360.671 201.921 361.567 202.562 362.011 203.658C362.448 204.78 362.407 206.254 361.889 208.081C361.436 209.677 360.735 211.199 359.786 212.647C358.829 214.121 357.781 215.42 356.644 216.543L359.554 215.288L358.011 220.73L337.601 229.53L339.144 224.088L342.129 222.801C341.368 222.519 340.843 221.899 340.555 220.939C340.284 219.994 340.374 218.724 340.827 217.129C341.337 215.328 342.246 213.49 343.554 211.616C344.854 209.769 346.426 208.063 348.271 206.5C350.132 204.952 352.107 203.728 354.195 202.827ZM349.349 219.688C350.602 219.148 351.743 218.43 352.773 217.534C353.828 216.627 354.713 215.636 355.428 214.56C356.167 213.473 356.679 212.428 356.963 211.425C357.248 210.421 357.277 209.595 357.051 208.948C356.825 208.3 356.335 207.901 355.579 207.753C354.841 207.619 353.858 207.817 352.63 208.347C351.402 208.876 350.248 209.6 349.169 210.517C348.107 211.449 347.21 212.445 346.478 213.506C345.739 214.593 345.23 215.625 344.953 216.603C344.669 217.607 344.636 218.445 344.854 219.119C345.097 219.782 345.588 220.18 346.326 220.314C347.089 220.437 348.097 220.228 349.349 219.688Z" fill="black"/>
<path d="M236.102 124.218H240.909L240.932 223.513H236.102V124.218Z" fill="#1A1A1A"/>
<path d="M230.918 124.795L234.944 124.218V212.309H230.887L230.918 124.795Z" fill="#1A1A1A"/>
<path fill-rule="evenodd" clip-rule="evenodd" d="M230.904 209.99C230.706 210.844 230.393 211.454 229.773 212.034C229.773 212.061 229.756 212.072 229.733 212.086C229.719 212.095 229.702 212.106 229.685 212.122C227.691 214.026 225.742 215.973 223.837 217.965C223.625 218.184 223.412 218.402 223.201 218.62C222.13 219.72 221.07 220.81 220.071 221.993C219.85 222.259 219.628 222.535 219.406 222.812C219.185 223.088 218.963 223.365 218.742 223.631C218.343 224.117 217.945 224.648 217.546 225.179L217.546 225.18C217.413 225.372 217.275 225.563 217.137 225.755C216.862 226.139 216.586 226.522 216.35 226.906C216.261 227.039 216.167 227.167 216.074 227.295C215.887 227.55 215.7 227.806 215.552 228.101C215.331 228.544 215.065 229.031 214.666 229.385C214.612 229.684 214.439 229.917 214.264 230.155C214.154 230.303 214.042 230.454 213.957 230.624C213.78 231.022 213.514 231.421 213.248 231.731C213.076 231.924 212.977 232.139 212.88 232.349C212.778 232.571 212.677 232.788 212.495 232.97C212.346 233.374 212.105 233.727 211.865 234.078C211.606 234.458 211.349 234.835 211.21 235.272C210.236 236.821 209.35 238.414 208.464 240.007L208.464 240.008C207.843 241.07 207.223 242.177 206.603 243.283C206.204 243.947 205.85 244.655 205.495 245.363L205.495 245.363C205.375 245.578 205.246 245.793 205.116 246.009C204.818 246.505 204.515 247.008 204.299 247.532C204.099 247.682 204.026 247.888 203.953 248.095C203.896 248.255 203.839 248.415 203.723 248.55C203.48 248.828 203.427 249.161 203.373 249.505C203.358 249.6 203.344 249.695 203.325 249.79V249.79C203.325 249.834 203.325 249.878 203.28 249.922C203.014 250.321 202.926 250.808 202.837 251.295C202.837 251.516 202.749 251.737 202.66 251.914C202.481 252.236 202.418 252.586 202.354 252.942C202.338 253.027 202.323 253.112 202.306 253.198C202.265 253.402 202.177 253.587 202.089 253.771C201.987 253.986 201.886 254.199 201.863 254.437C201.807 254.769 201.7 255.084 201.594 255.393C201.531 255.577 201.469 255.76 201.42 255.942C201.366 256.113 201.313 256.281 201.26 256.447C201.094 256.97 200.934 257.474 200.799 257.978C200.666 258.554 200.533 259.085 200.312 259.616C200.29 259.704 200.279 259.793 200.268 259.881C200.257 259.97 200.245 260.058 200.223 260.147C200.184 260.265 200.154 260.382 200.124 260.496C200.087 260.639 200.051 260.776 200.002 260.899C199.839 261.287 199.741 261.683 199.645 262.076C199.531 262.537 199.42 262.993 199.204 263.422C199.16 263.511 199.16 263.599 199.16 263.688C199.116 264.042 198.983 264.396 198.85 264.706C198.761 264.927 198.673 265.193 198.628 265.458C198.54 265.813 198.451 266.167 198.318 266.477C198.23 266.698 198.141 266.963 198.097 267.229C198.022 267.584 197.9 267.931 197.777 268.28C197.609 268.758 197.439 269.24 197.388 269.752C197.388 269.774 197.377 269.796 197.366 269.818C197.355 269.84 197.344 269.863 197.344 269.885C197.166 270.239 197.034 270.637 196.989 271.036C196.945 271.257 196.901 271.478 196.812 271.655C196.59 272.054 196.502 272.452 196.413 272.895C196.369 273.116 196.28 273.337 196.192 273.514C196.173 273.563 196.155 273.611 196.137 273.659C196.024 273.955 195.92 274.227 195.882 274.532C195.837 274.754 195.793 274.975 195.704 275.152C195.541 275.539 195.444 275.936 195.347 276.329C195.234 276.789 195.122 277.245 194.907 277.675C194.854 277.781 194.848 277.887 194.843 277.994C194.84 278.064 194.836 278.135 194.818 278.206C194.802 278.254 194.792 278.315 194.781 278.378C194.762 278.488 194.742 278.609 194.685 278.693C194.434 279.17 194.311 279.675 194.187 280.185C194.092 280.574 193.997 280.965 193.844 281.349C193.771 281.548 193.713 281.755 193.655 281.964C193.571 282.264 193.487 282.566 193.356 282.854C193.268 283.031 193.223 283.252 193.223 283.473C193.179 284.093 192.869 284.536 192.47 284.978C191.983 285.598 191.451 286.173 190.92 286.748L190.92 286.749C190.632 287.058 190.355 287.368 190.078 287.678C189.801 287.988 189.524 288.298 189.236 288.608C188.832 289.036 188.425 289.461 188.018 289.886C186.997 290.952 185.978 292.014 185.027 293.122C184.097 294.207 183.111 295.236 182.126 296.265C181.14 297.294 180.154 298.323 179.224 299.408C177.629 301.178 175.946 302.86 174.262 304.541L174.262 304.542C172.316 306.545 170.35 308.529 168.391 310.505C167.407 311.499 166.424 312.491 165.446 313.483L162.92 316.006C162.654 316.272 162.344 316.404 161.99 316.404H161.06H156.408H155.344C154.99 316.449 154.724 316.581 154.503 316.803C154.104 317.157 153.838 317.599 153.838 318.175C153.86 319.06 153.871 319.945 153.882 320.831C153.894 321.716 153.905 322.601 153.927 323.486C153.927 323.663 153.927 323.84 153.971 324.017C154.148 324.593 154.458 325.036 155.079 325.213C155.389 325.301 155.699 325.301 156.009 325.301C158.4 325.345 160.836 325.345 163.271 325.345H163.275H223.172C223.29 325.345 223.409 325.35 223.527 325.355C223.763 325.365 223.999 325.375 224.236 325.345C224.413 325.345 224.634 325.301 224.856 325.213C225.299 325.036 225.653 324.77 225.698 324.283C225.712 324.165 225.732 324.047 225.752 323.929C225.791 323.693 225.83 323.457 225.83 323.221V318.44C225.872 318.069 225.797 317.774 225.715 317.449C225.709 317.425 225.703 317.402 225.698 317.378C225.565 316.803 225.166 316.581 224.679 316.449C224.368 316.404 224.058 316.404 223.748 316.404H219.362H218.432C218.365 316.404 218.299 316.393 218.232 316.382C218.166 316.371 218.1 316.36 218.033 316.36C217.812 316.316 217.634 316.05 217.767 315.873C217.945 315.586 218.144 315.298 218.343 315.01C218.543 314.722 218.742 314.435 218.919 314.147C219.134 313.815 219.367 313.491 219.601 313.164C219.898 312.752 220.198 312.334 220.47 311.89C220.868 311.27 221.312 310.65 221.887 310.163C222.977 309.207 224.019 308.204 225.061 307.2C225.756 306.53 226.451 305.861 227.16 305.206C228.257 304.176 229.329 303.096 230.395 302.023C230.75 301.666 231.103 301.31 231.457 300.957L231.458 300.956C232.388 300.027 233.318 299.098 234.159 298.08C235.178 296.929 235.976 295.645 236.729 294.318C236.957 293.897 237.178 293.476 237.398 293.058C237.733 292.421 238.065 291.79 238.412 291.175C238.656 290.71 238.911 290.256 239.166 289.803C239.42 289.349 239.675 288.895 239.919 288.431C240.672 287.058 241.425 285.686 242.134 284.27C242.373 284.058 242.5 283.782 242.631 283.5C242.718 283.311 242.807 283.12 242.931 282.942C243.104 282.695 243.222 282.421 243.338 282.15C243.431 281.935 243.523 281.722 243.64 281.526C243.895 281.067 244.138 280.601 244.379 280.136C244.767 279.392 245.153 278.649 245.59 277.94C245.72 277.716 245.827 277.477 245.934 277.238C246.081 276.91 246.226 276.584 246.431 276.303C246.649 276.003 246.817 275.67 246.986 275.334C247.092 275.124 247.198 274.914 247.317 274.709C247.893 273.692 248.425 272.629 248.956 271.567L248.957 271.567C249.104 271.283 249.252 271.003 249.399 270.723C249.825 269.913 250.245 269.114 250.64 268.291C251.609 266.354 251.657 266.22 252.155 264.801C252.18 264.729 252.207 264.653 252.235 264.573C252.501 263.909 252.678 263.245 252.722 262.537C252.722 262.331 252.762 262.124 252.801 261.918C252.821 261.814 252.84 261.711 252.855 261.608C252.988 261.032 252.988 260.457 252.855 259.881C252.767 259.527 252.722 259.173 252.678 258.819C252.634 258.554 252.589 258.288 252.501 258.067C251.881 256.65 251.26 255.721 249.931 254.836C249.823 254.768 249.718 254.692 249.613 254.615C249.375 254.441 249.131 254.264 248.824 254.172C248.381 254.039 248.248 253.552 248.469 253.065C248.486 253.036 248.502 253.006 248.519 252.976C248.729 252.601 248.96 252.188 249.001 251.737C249.023 251.582 249.067 251.438 249.112 251.295C249.156 251.151 249.2 251.007 249.222 250.852C249.311 250.454 249.355 250.055 249.4 249.657L249.4 249.657C249.444 248.639 249.311 247.621 249.001 246.647C248.876 246.211 248.686 245.797 248.491 245.375C248.409 245.196 248.327 245.016 248.248 244.832C247.406 243.681 246.476 242.663 245.191 241.999C245.058 241.94 244.925 241.877 244.792 241.813C244.526 241.685 244.26 241.557 243.995 241.468C243.507 241.336 243.33 240.804 243.685 240.406C243.894 240.144 244.073 239.851 244.248 239.564C244.369 239.366 244.488 239.17 244.615 238.99C244.748 238.802 244.878 238.611 245.008 238.42C245.398 237.847 245.789 237.275 246.254 236.777C246.624 236.378 246.922 235.925 247.216 235.475C247.38 235.226 247.542 234.977 247.716 234.74C247.805 234.608 247.849 234.431 247.893 234.254C247.932 234.158 247.962 234.062 247.991 233.97C248.028 233.849 248.065 233.734 248.115 233.634C248.336 233.191 248.425 232.704 248.469 232.218C248.469 232.04 248.491 231.863 248.514 231.686C248.536 231.509 248.558 231.332 248.558 231.155C248.602 229.827 248.558 228.544 247.938 227.304C247.362 226.109 246.476 225.224 245.368 224.56C244.305 223.896 243.153 223.454 241.868 223.454H241.868C241.735 223.454 241.602 223.454 241.469 223.409C241.248 223.365 241.026 223.188 241.026 222.967L241.026 222.966C240.982 222.568 240.938 222.17 240.938 221.772C240.916 218.496 240.905 215.232 240.893 211.968C240.891 211.308 240.889 210.649 240.887 209.99H236.18C236.166 215.64 236.119 221.281 236.02 226.906C236.02 227.105 236.009 227.304 235.998 227.504C235.987 227.703 235.976 227.902 235.976 228.101C235.976 228.19 235.976 228.367 235.887 228.455C235.799 228.544 235.666 228.632 235.577 228.632C235.488 228.632 235.311 228.544 235.267 228.455C235.178 228.322 235.134 228.145 235.134 227.968C235.09 227.172 235.09 226.375 235.09 225.579V225.578C235.068 223.786 235.068 222.004 235.068 220.222C235.068 218.441 235.068 216.659 235.045 214.867C234.992 213.261 234.939 211.641 234.931 209.99H230.904ZM182.591 316.183C182.015 316.172 181.439 316.161 180.863 316.139C180.487 316.124 180.111 316.114 179.732 316.104C178.993 316.084 178.242 316.064 177.452 316.006C177.274 316.006 177.097 316.006 176.92 316.05C176.122 316.202 175.325 316.159 174.527 316.115C174.395 316.108 174.262 316.101 174.129 316.095C173.708 316.072 173.287 316.061 172.866 316.05C172.445 316.039 172.025 316.028 171.604 316.006C171.382 316.006 171.161 315.962 170.939 315.918C170.85 315.918 170.762 315.696 170.806 315.608C171.072 315.298 171.338 314.988 171.604 314.722C172.645 313.638 173.686 312.565 174.727 311.492C175.768 310.418 176.809 309.345 177.85 308.26C179.512 306.534 181.184 304.807 182.857 303.081C184.529 301.355 186.202 299.629 187.863 297.903C188.682 297.04 189.502 296.188 190.322 295.335C191.141 294.483 191.961 293.631 192.78 292.768C193.399 292.128 194.007 291.499 194.615 290.869C195.225 290.237 195.836 289.605 196.458 288.962C196.546 288.829 196.679 288.696 196.812 288.564L196.812 288.563C196.945 288.386 197.089 288.22 197.233 288.054C197.377 287.888 197.521 287.722 197.654 287.545C197.695 287.254 197.806 286.983 197.915 286.712C198.039 286.407 198.162 286.103 198.185 285.775C198.23 285.111 198.318 284.491 198.628 283.872C198.717 283.65 198.761 283.429 198.761 283.208C198.806 282.765 198.85 282.322 199.071 281.924C199.071 281.902 199.083 281.88 199.094 281.858C199.105 281.836 199.116 281.813 199.116 281.791C199.206 281.099 199.379 280.427 199.549 279.761C199.63 279.448 199.709 279.137 199.78 278.826C199.869 278.427 199.958 278.029 200.09 277.675C200.179 277.409 200.268 277.099 200.312 276.79C200.356 276.258 200.445 275.816 200.666 275.373C200.755 275.24 200.799 275.063 200.799 274.886C200.844 274.311 200.932 273.736 201.242 273.249L201.242 273.249C201.287 273.116 201.331 272.983 201.331 272.85C201.347 272.761 201.362 272.67 201.377 272.578C201.443 272.17 201.513 271.743 201.73 271.345C201.818 271.213 201.863 271.036 201.863 270.859C201.907 270.372 202.04 269.929 202.261 269.486C202.322 269.366 202.341 269.225 202.361 269.077C202.37 269.008 202.38 268.937 202.394 268.867C202.438 268.513 202.571 268.159 202.704 267.849C202.837 267.627 202.882 267.362 202.926 267.096C202.947 267.012 202.965 266.928 202.984 266.845C203.043 266.577 203.101 266.315 203.236 266.078C203.325 265.901 203.413 265.68 203.457 265.458C203.546 265.016 203.635 264.618 203.856 264.219C203.945 264.086 203.989 263.954 203.989 263.821C204.078 263.378 204.166 262.936 204.432 262.581C204.483 262.146 204.654 261.739 204.822 261.337C204.945 261.045 205.066 260.755 205.141 260.457C205.185 260.302 205.274 260.147 205.362 259.992C205.451 259.837 205.54 259.682 205.584 259.527C205.65 259.229 205.792 258.93 205.933 258.631C205.98 258.531 206.027 258.432 206.071 258.332C206.736 256.827 206.957 256.473 207.932 255.19C208.497 254.459 209.137 253.804 209.776 253.148C209.989 252.93 210.203 252.711 210.413 252.49L210.413 252.489C211.654 251.25 212.894 250.011 214.179 248.86C214.501 248.569 214.823 248.283 215.143 247.999C215.748 247.462 216.346 246.931 216.926 246.381C217.989 245.408 218.831 244.345 219.495 243.106C219.982 242.265 220.514 241.38 221.179 240.627C221.799 239.919 222.463 239.211 223.217 238.636C223.268 238.596 223.318 238.556 223.368 238.517C223.708 238.248 224.032 237.993 224.457 237.839C224.643 237.777 224.819 237.686 224.999 237.594C225.205 237.487 225.417 237.379 225.653 237.308C225.82 237.256 225.986 237.194 226.154 237.131C226.566 236.977 226.984 236.821 227.425 236.821C227.558 236.821 227.691 236.816 227.824 236.811C228.09 236.801 228.356 236.791 228.622 236.821C229.33 236.865 230.039 236.821 230.704 236.644C230.766 236.644 230.806 236.579 230.839 236.525C230.854 236.502 230.868 236.48 230.881 236.467C230.87 236.456 230.86 236.443 230.849 236.43C230.813 236.386 230.771 236.334 230.704 236.334C230.527 236.312 230.349 236.301 230.172 236.29C229.995 236.279 229.818 236.268 229.64 236.245C229.463 236.245 229.286 236.201 229.109 236.157C229.02 236.113 228.887 235.98 228.932 235.847C228.942 235.794 228.95 235.74 228.958 235.688C228.984 235.522 229.008 235.362 229.109 235.227C229.246 235.035 229.382 234.842 229.518 234.649C230.348 233.472 231.169 232.309 232.121 231.244C232.609 230.668 233.14 230.137 233.805 229.783C234.159 229.606 234.647 229.783 234.735 230.181C234.824 230.713 234.957 231.2 235.178 231.686C235.267 231.952 235.311 232.218 235.311 232.483C235.444 233.988 235.444 235.493 235.311 236.998C235.311 237.219 235.311 237.485 235.223 237.662C235.06 238.028 234.944 238.412 234.827 238.798C234.69 239.253 234.552 239.709 234.337 240.14C233.495 241.911 232.387 243.46 230.748 244.611C229.065 245.806 227.824 247.399 226.894 249.214C226.872 249.257 226.851 249.303 226.829 249.35C226.759 249.496 226.684 249.656 226.584 249.79C226.406 250.055 226.141 250.144 225.919 249.922C225.565 249.568 225.166 249.303 224.723 249.081C224.634 249.037 224.501 249.037 224.368 249.081C224.324 249.126 224.236 249.258 224.28 249.303C224.391 249.436 224.49 249.579 224.59 249.723C224.69 249.867 224.789 250.011 224.9 250.144C225.476 250.896 225.875 251.737 225.83 252.711C225.83 252.932 225.819 253.154 225.808 253.375C225.797 253.596 225.786 253.818 225.786 254.039V254.039C225.742 254.393 225.698 254.747 225.565 255.057C225.387 255.455 225.254 255.898 225.254 256.34C225.254 256.79 225.066 257.126 224.863 257.488C224.846 257.518 224.829 257.549 224.811 257.58C224.679 257.801 224.457 257.978 224.191 257.978C223.661 257.978 223.154 258.122 222.647 258.266C222.179 258.399 221.711 258.532 221.223 258.554C220.923 258.693 220.605 258.797 220.285 258.902C219.896 259.028 219.505 259.156 219.141 259.35C218.565 259.616 218.033 259.881 217.59 260.324C217.59 260.368 217.634 260.545 217.679 260.545C217.812 260.59 217.944 260.634 218.077 260.59C218.23 260.552 218.366 260.473 218.5 260.395C218.677 260.292 218.85 260.191 219.052 260.191C219.28 260.191 219.485 260.071 219.683 259.955C219.754 259.913 219.824 259.872 219.894 259.837C220.012 259.778 220.13 259.758 220.248 259.739C220.307 259.729 220.366 259.719 220.425 259.704C220.824 259.66 221.223 259.572 221.577 259.35C221.666 259.262 221.799 259.218 221.932 259.218L221.932 259.217C222.862 259.129 223.793 259.04 224.723 259.085C225.387 259.129 225.742 259.66 225.83 260.191C225.875 260.413 225.875 260.634 225.875 260.855C225.919 261.918 226.008 262.98 226.229 263.998C226.318 264.396 226.362 264.795 226.362 265.193V268.513C226.362 269.398 226.273 270.239 226.096 271.124C226.016 271.447 225.984 271.786 225.952 272.131C225.931 272.354 225.91 272.58 225.875 272.806C225.853 272.939 225.842 273.072 225.83 273.204C225.819 273.337 225.808 273.47 225.786 273.603C225.662 274.123 225.524 274.63 225.388 275.13C225.281 275.523 225.175 275.913 225.077 276.303C224.723 277.542 224.191 278.693 223.66 279.843L223.66 279.844C223.394 280.375 223.039 280.906 222.685 281.393C222.153 282.19 221.577 282.942 220.913 283.65C220.392 284.236 219.775 284.726 219.168 285.208C218.949 285.382 218.732 285.555 218.52 285.731C216.615 287.324 214.71 288.918 212.894 290.644C210.9 292.547 208.951 294.539 207.135 296.619C206.78 297.018 206.47 297.416 206.16 297.858C205.141 299.319 204.078 300.691 202.837 301.975C201.317 303.529 199.768 304.999 198.214 306.474C197.821 306.847 197.427 307.221 197.034 307.596C196.662 307.968 196.238 308.313 195.822 308.653C195.693 308.759 195.565 308.863 195.439 308.968C193.179 310.916 190.787 312.731 188.306 314.413C187.783 314.823 187.197 315.17 186.628 315.508C186.522 315.571 186.417 315.634 186.312 315.696C185.736 316.05 185.072 316.272 184.319 316.227C183.743 316.205 183.167 316.194 182.591 316.183ZM228.001 293.786H227.824C226.584 293.698 225.565 293.167 224.989 291.883C224.9 291.706 224.856 291.485 224.811 291.263C224.767 290.954 224.811 290.644 225.033 290.378C225.4 289.939 225.712 289.472 226.023 289.009C226.276 288.632 226.527 288.257 226.805 287.899C227.614 286.846 228.255 285.708 228.906 284.553C229.075 284.253 229.245 283.952 229.419 283.65C229.501 283.342 229.631 283.063 229.76 282.786C229.909 282.465 230.057 282.147 230.128 281.791C230.169 281.564 230.268 281.356 230.367 281.15C230.48 280.913 230.592 280.679 230.615 280.419C230.659 279.977 230.837 279.578 231.014 279.18C231.102 279.003 231.147 278.826 231.147 278.649C231.235 278.118 231.324 277.586 231.501 277.099C231.668 276.734 231.684 276.343 231.701 275.946C231.706 275.814 231.712 275.682 231.723 275.55C231.745 275.174 231.756 274.798 231.767 274.422C231.778 274.045 231.789 273.669 231.811 273.293C231.856 273.204 232.033 273.072 232.121 273.116C232.166 273.116 232.21 273.116 232.254 273.16C232.476 273.293 232.697 273.426 232.919 273.603C233.651 274.18 234.248 274.857 234.858 275.548C234.949 275.652 235.041 275.756 235.134 275.86C235.488 276.258 235.832 276.657 236.175 277.055C236.519 277.454 236.862 277.852 237.216 278.25C237.245 278.279 237.292 278.271 237.346 278.261C237.375 278.256 237.406 278.25 237.438 278.25C237.438 278.25 237.482 278.206 237.482 278.162C237.482 278.095 237.485 278.029 237.488 277.963C237.496 277.763 237.504 277.564 237.438 277.365C237.349 277.099 237.272 276.823 237.194 276.546C237.117 276.27 237.039 275.993 236.95 275.727C236.865 275.415 236.707 275.121 236.546 274.822C236.456 274.655 236.365 274.486 236.286 274.311C236.264 274.222 236.219 274.145 236.175 274.068C236.131 273.99 236.087 273.913 236.064 273.824C236.02 273.691 236.02 273.558 236.02 273.426C236.02 273.16 236.33 272.895 236.552 272.983C237.128 273.204 237.704 273.381 238.324 273.426C238.403 273.462 238.483 273.498 238.562 273.533C239.456 273.936 240.335 274.332 241.026 275.063C241.204 275.24 241.292 275.639 241.115 275.904C240.804 276.454 240.532 277.017 240.263 277.572C240.035 278.044 239.809 278.511 239.564 278.958C239.105 279.746 238.669 280.558 238.24 281.358C238.09 281.637 237.941 281.915 237.792 282.19C236.685 284.181 235.533 286.173 234.381 288.121C233.716 289.272 233.052 290.378 232.254 291.44C231.191 292.857 229.773 293.609 228.001 293.786ZM231.324 217.124C231.324 217.744 231.324 218.364 231.28 218.983V218.983C231.28 219.514 231.28 220.045 231.413 220.621V221.152C231.368 221.683 231.191 222.17 230.837 222.613C229.375 224.295 228.178 226.154 227.027 228.013C226.141 229.429 225.343 230.89 224.634 232.395C224.147 233.368 223.704 234.386 223.305 235.404C223.128 235.758 222.906 236.068 222.552 236.29C222.504 236.318 222.454 236.349 222.403 236.381C222.217 236.495 222.017 236.619 221.843 236.688C220.355 237.336 219.032 238.214 217.703 239.095C217.488 239.237 217.274 239.379 217.058 239.521C216.926 239.609 216.793 239.698 216.66 239.831C216.11 240.319 215.539 240.786 214.976 241.247C214.723 241.454 214.471 241.661 214.223 241.867C213.62 242.363 213.046 242.944 212.477 243.519C212.335 243.663 212.194 243.806 212.052 243.947C211.875 244.124 211.653 244.301 211.432 244.434C211.343 244.478 211.255 244.434 211.21 244.345V244.213C211.454 243.727 211.718 243.24 211.974 242.769C212.091 242.553 212.207 242.341 212.318 242.132C212.559 241.711 212.782 241.28 213.003 240.853C213.27 240.338 213.534 239.828 213.824 239.344C214.137 238.823 214.429 238.282 214.723 237.739C215.177 236.897 215.634 236.052 216.172 235.272C216.323 235.047 216.444 234.822 216.562 234.605C216.653 234.437 216.741 234.275 216.837 234.121C216.96 233.948 217.056 233.762 217.155 233.57C217.234 233.417 217.315 233.26 217.413 233.103C217.833 232.457 218.229 231.789 218.619 231.131C218.764 230.886 218.908 230.643 219.052 230.403C219.136 230.264 219.219 230.123 219.303 229.982C219.753 229.227 220.213 228.456 220.736 227.747C220.971 227.438 221.203 227.125 221.435 226.811C222.034 226.004 222.635 225.193 223.305 224.427L223.46 224.25C224.646 222.897 225.795 221.583 227.027 220.311L227.027 220.311C228.134 219.204 229.242 218.098 230.394 216.991L230.925 216.593C230.97 216.504 231.191 216.637 231.235 216.726L231.235 216.726C231.28 216.859 231.324 216.991 231.324 217.124V217.124ZM230.748 255.411C230.438 254.836 230.305 254.172 230.349 253.773C230.349 252.622 230.571 251.826 231.235 251.206C231.309 251.118 231.378 251.029 231.447 250.94C231.585 250.763 231.723 250.586 231.9 250.409C233.451 248.816 235.09 247.267 236.773 245.806C236.906 245.673 237.039 245.54 237.172 245.452C237.748 245.009 238.368 244.744 239.121 244.788L240.849 244.921C241.077 244.921 241.276 245.022 241.479 245.125C241.631 245.203 241.786 245.281 241.957 245.319C242.504 245.448 242.911 245.81 243.313 246.168C243.465 246.303 243.615 246.437 243.773 246.559C243.906 246.691 243.95 247.134 243.817 247.311C243.685 247.488 243.552 247.665 243.374 247.798C242.311 248.816 241.514 249.967 240.805 251.162C240.539 251.56 240.229 251.958 239.919 252.313C238.324 254.039 236.419 255.234 234.248 256.031C234.207 256.044 234.166 256.054 234.126 256.063C234.037 256.083 233.955 256.102 233.894 256.163C233.451 256.473 232.919 256.518 232.387 256.518C231.546 256.562 231.058 256.075 230.748 255.411ZM243.02 256.96C243.995 256.916 244.925 256.916 245.944 257.137C246.133 257.353 246.389 257.487 246.66 257.629C246.833 257.719 247.012 257.813 247.184 257.934C247.716 258.509 248.159 259.04 248.381 259.793C248.403 259.881 248.436 259.959 248.469 260.036C248.502 260.114 248.536 260.191 248.558 260.28C248.735 260.767 248.425 261.209 247.938 261.209H247.406C247.029 261.209 246.653 261.22 246.276 261.231C245.9 261.243 245.523 261.254 245.147 261.254C244.703 261.298 244.305 261.431 243.906 261.608C242.533 262.183 241.469 263.113 240.45 264.175L240.45 264.175C240.051 264.573 239.653 264.972 239.21 265.326C238.767 265.724 238.324 266.034 237.792 266.299C237.601 266.381 237.427 266.497 237.249 266.614C237.138 266.688 237.025 266.763 236.906 266.831C236.86 266.853 236.818 266.876 236.776 266.898C236.657 266.962 236.55 267.019 236.419 267.052C235.843 267.14 235.311 267.317 234.78 267.495C234.071 267.716 233.318 267.716 232.564 267.627C232.254 267.627 232.077 267.406 231.989 267.14C231.767 266.521 231.811 265.901 232.033 265.326C232.21 264.883 232.476 264.44 232.786 264.086C233.22 263.587 233.65 263.081 234.08 262.573C235.101 261.37 236.126 260.161 237.216 259.04C237.46 258.819 237.681 258.576 237.903 258.332C238.125 258.089 238.346 257.845 238.59 257.624C238.988 257.27 239.387 256.96 239.874 256.739C240.628 256.96 241.292 257.359 241.912 257.845C241.982 257.897 242.049 257.951 242.117 258.004C242.393 258.224 242.664 258.438 243.02 258.509C243.064 258.509 243.153 258.465 243.241 258.421V258.288C243.131 258.133 243.02 257.967 242.909 257.801C242.798 257.635 242.688 257.469 242.577 257.314C242.577 257.27 242.621 257.137 242.666 257.093C242.754 257.004 242.887 256.96 243.02 256.96ZM243.906 232.129C243.33 232.395 242.71 232.439 242.045 232.439C240.716 232.439 239.52 231.908 238.545 230.89C238.058 230.403 237.969 229.695 238.368 229.075C238.412 228.986 238.501 228.854 238.59 228.765C238.944 228.278 239.431 227.968 240.096 227.836C240.849 227.703 241.558 227.703 242.311 227.836C243.064 228.013 243.596 228.411 243.95 229.075C244.216 229.518 244.349 229.96 244.349 230.447V231.509C244.349 231.819 244.172 231.996 243.906 232.129Z" fill="#1A1A1A"/>
<path d="M184.826 81.5669C185.302 79.1683 183.815 76.8923 181.562 76.4455C179.308 75.9987 177.066 77.5356 176.59 79.9342C176.115 82.3328 177.601 84.6088 179.855 85.0556C182.108 85.5024 184.351 83.9655 184.826 81.5669Z" stroke="#1A1A1A" stroke-width="1.14492"/>
<path d="M223.577 34.0737C224.052 31.6752 222.566 29.3991 220.312 28.9523C218.058 28.5055 215.816 30.0424 215.341 32.441C214.865 34.8396 216.351 37.1157 218.605 37.5624C220.859 38.0092 223.101 36.4723 223.577 34.0737Z" stroke="#1A1A1A" stroke-width="1.14492"/>
<path d="M239.96 87.2871C240.436 84.8885 238.95 82.6125 236.696 82.1657C234.442 81.7189 232.2 83.2558 231.725 85.6544C231.249 88.053 232.735 90.329 234.989 90.7758C237.243 91.2226 239.485 89.6857 239.96 87.2871Z" fill="white" stroke="#1A1A1A" stroke-width="1.14492"/>
<path d="M232.827 123.606L232.755 118.35L232.738 117.11L231.623 116.568C230.726 116.137 230.016 115.647 229.272 114.913C226.139 111.865 225.682 107.099 227.947 103.554L227.988 103.49L228.024 103.422L235.335 89.7979L243.312 103.686L243.324 103.707L243.336 103.728C245.426 107.171 245.016 111.718 242.079 114.737C241.378 115.466 240.708 115.963 239.855 116.413L238.775 116.99L238.792 118.215L238.865 123.523L232.827 123.606ZM226.251 102.471C223.482 106.804 224.038 112.629 227.868 116.355C228.737 117.2 229.709 117.874 230.742 118.377L230.815 123.633L230.918 125.665L232.855 125.618L238.892 125.535L240.905 125.508L240.905 123.997L240.877 123.495L240.804 118.188C241.786 117.663 242.704 116.98 243.521 116.14C247.113 112.448 247.61 106.892 245.057 102.684L236.456 87.7088L235.275 85.6528L234.154 87.742L226.251 102.471Z" fill="#1A1A1A"/>
<path d="M236.32 88.4854L236.307 87.4792L234.294 87.5069L234.308 88.5131L234.582 108.435L234.595 109.441L236.608 109.414L236.594 108.408L236.32 88.4854Z" fill="#1A1A1A"/>
<path d="M237.752 110.527C236.589 111.722 234.678 111.748 233.483 110.586C232.288 109.423 232.262 107.512 233.424 106.317C234.587 105.122 236.498 105.095 237.693 106.258C238.888 107.421 238.915 109.332 237.752 110.527Z" fill="#1A1A1A"/>
<path d="M231.335 86.3525L184.875 81.5229" stroke="black" stroke-width="1.14557"/>
<path d="M183.04 76.5969L216.943 36.9946" stroke="black" stroke-width="1.14557"/>
</svg>
